# xmcd
#
# Track frame offsets:
#	150
#	12591
#	26804
#	45266
#	56769
#	69498
#	83545
#	98429
#	111181
#	127713
#	138281
#	157780
#	168345
#	183784
#	196505
#	208465
#	222357
#	231474
#
# Disc length: 3251 seconds
#
# Revision: 0
# Processed by: cddbd v1.5PL3 Copyright (c) Steve Scherf et al.
# Submitted via: dBpowerAMP V4.0
#
DISCID=e70cb112
DTITLE=varios - Soul emotian
DYEAR=1900
DGENRE=Soul
TTITLE0=We need an understanding
TTITLE1=It`s to late
TTITLE2=I don`t know what you got
TTITLE3=Tired of being alone
TTITLE4=Just you and me
TTITLE5=I can`t turn you loose
TTITLE6=Feel the need of me
TTITLE7=When a man loves a woman
TTITLE8=Endlessley
TTITLE9=You got what you wanted
TTITLE10=Lean on me
TTITLE11=Hold on I`m coming
TTITLE12=Knock on wood
TTITLE13=Backstabbers
TTITLE14=Tell it like it is
TTITLE15=Lost someone
TTITLE16=Every beat of my heart
TTITLE17=Soul man
EXTD=united audio enterttaiment, the ultimate music collection
EXTT0=
EXTT1=
EXTT2=
EXTT3=
EXTT4=
EXTT5=
EXTT6=
EXTT7=
EXTT8=
EXTT9=
EXTT10=
EXTT11=
EXTT12=
EXTT13=
EXTT14=
EXTT15=
EXTT16=
EXTT17=
PLAYORDER=
